<?xml version="1.0" standalone="no"?>
<!DOCTYPE svg PUBLIC "-//W3C//DTD SVG 20010904//EN"
 "http://www.w3.org/TR/2001/REC-SVG-20010904/DTD/svg10.dtd">
<svg version="1.0" xmlns="http://www.w3.org/2000/svg"
 width="512.000000pt" height="512.000000pt" viewBox="0 0 512.000000 512.000000"
 preserveAspectRatio="xMidYMid meet">
<metadata>
Created by potrace 1.14, written by Peter Selinger 2001-2017
</metadata>
<g transform="translate(0.000000,512.000000) scale(0.100000,-0.100000)"
fill="#000000" stroke="none">
<path d="M2379 5086 c-2 -2 -33 -7 -69 -11 -218 -23 -334 -47 -560 -118 -127
-39 -413 -172 -491 -228 -15 -10 -30 -19 -34 -19 -14 0 -185 -123 -280 -202
-164 -137 -324 -307 -439 -468 -25 -36 -50 -70 -56 -77 -5 -7 -10 -15 -10 -18
0 -4 -13 -26 -30 -50 -16 -24 -30 -48 -30 -54 0 -6 -3 -11 -7 -11 -5 0 -13
-10 -19 -23 -6 -12 -29 -59 -52 -103 -107 -212 -205 -517 -238 -741 -3 -26 -8
-57 -10 -68 -12 -61 -18 -170 -18 -335 0 -172 2 -211 19 -345 23 -192 105
-485 181 -654 73 -160 200 -394 224 -411 4 -3 18 -23 32 -45 56 -89 228 -289
322 -374 22 -20 49 -45 61 -56 329 -307 841 -547 1300 -610 28 -4 61 -9 75
-11 146 -25 403 -24 625 1 223 26 510 107 728 206 113 52 297 153 352 193 17
13 55 40 85 61 186 129 411 353 566 565 41 56 114 167 114 174 0 2 18 34 41
71 23 38 54 98 70 134 17 36 34 74 40 84 49 89 145 405 175 577 47 274 50 559
8 820 -3 19 -7 44 -8 55 -22 143 -89 378 -145 510 -5 11 -21 49 -36 85 -170
405 -521 820 -909 1075 -203 134 -437 244 -663 314 -145 45 -364 89 -483 98
-80 7 -426 13 -431 9z m531 -275 c206 -36 420 -95 415 -115 -2 -13 -21 -63
-35 -91 -5 -11 -46 -110 -91 -220 -45 -110 -89 -218 -99 -240 -16 -39 -31 -75
-35 -85 -3 -9 -18 -44 -35 -85 -9 -22 -47 -114 -85 -205 -37 -91 -75 -183 -85
-206 -10 -22 -49 -115 -85 -205 -37 -90 -72 -170 -78 -178 -7 -8 -11 -15 -9
-15 4 -1 -5 -27 -38 -106 -15 -36 -36 -87 -48 -115 l-20 -49 -26 58 c-14 32
-26 65 -26 72 0 8 -4 14 -8 14 -5 0 -9 6 -9 14 0 7 -9 34 -21 59 -12 24 -24
57 -28 71 -3 14 -10 26 -15 26 -5 0 -8 3 -8 8 1 4 0 10 -1 15 -1 4 -3 10 -5
15 -1 4 -10 25 -20 47 -10 22 -19 42 -20 45 -4 23 -41 107 -49 112 -6 4 -8 8
-4 8 4 0 -8 34 -27 75 -19 42 -34 76 -34 78 0 1 -5 16 -11 32 -6 17 -11 31
-11 33 1 1 -6 17 -16 35 -9 17 -18 41 -20 52 -2 10 -7 22 -11 25 -4 3 -8 12
-10 20 -2 8 -14 37 -28 66 -13 28 -24 54 -24 58 0 5 -6 22 -14 39 -25 55 -49
112 -51 123 -2 6 -14 35 -27 65 -14 30 -38 88 -54 129 -16 41 -32 77 -36 78
-5 2 -8 8 -8 14 0 18 -84 223 -95 230 -5 4 -7 8 -2 8 4 0 0 15 -10 33 -26 50
-26 64 5 75 39 16 161 50 202 57 19 4 71 13 115 21 44 8 112 17 150 20 39 4
72 8 74 10 2 2 92 2 200 0 138 -3 230 -10 311 -25z m-1306 -239 c10 -26 31
-77 47 -113 34 -80 51 -124 48 -124 -2 0 4 -13 13 -30 20 -38 148 -344 153
-366 2 -9 8 -25 13 -35 12 -23 34 -72 60 -139 11 -27 28 -68 38 -90 10 -22 18
-42 19 -45 1 -3 7 -18 13 -33 7 -16 12 -30 12 -33 0 -2 9 -23 19 -47 10 -23
35 -80 54 -127 20 -47 44 -103 53 -125 10 -22 19 -44 20 -50 3 -11 77 -192
100 -242 39 -86 71 -173 64 -173 -7 0 -319 127 -405 165 -16 7 -55 23 -85 35
-30 12 -78 32 -108 46 -29 13 -55 24 -57 24 -6 0 -412 168 -449 186 -16 8 -33
14 -37 14 -5 0 -32 11 -61 24 -29 13 -116 50 -193 81 -77 32 -158 65 -180 75
-55 24 -179 75 -185 76 -13 2 -60 28 -60 33 1 15 96 181 151 264 168 249 389
472 624 628 73 49 283 169 295 169 3 0 13 -21 24 -48z m1996 14 c419 -225 713
-510 939 -906 67 -117 80 -154 56 -156 -6 0 -23 -6 -38 -12 -16 -7 -33 -12
-38 -12 -5 0 -9 -4 -9 -8 0 -5 -6 -9 -12 -9 -11 -1 -261 -103 -368 -151 -19
-8 -37 -16 -40 -16 -3 -1 -18 -7 -35 -13 -58 -24 -90 -36 -95 -38 -3 0 -20 -9
-37 -18 -18 -10 -33 -14 -33 -11 0 4 -9 -1 -20 -11 -11 -10 -20 -15 -20 -12 0
5 -55 -16 -175 -68 -22 -10 -44 -19 -50 -20 -5 -2 -68 -28 -140 -58 -182 -77
-210 -88 -210 -85 -1 2 -13 -5 -28 -15 -15 -9 -27 -15 -27 -12 0 2 -33 -10
-72 -29 -40 -18 -75 -33 -78 -34 -13 -2 -50 -17 -98 -38 -29 -13 -56 -24 -60
-24 -4 0 -24 -9 -45 -20 -40 -21 -44 -17 -25 27 6 15 12 30 13 33 1 3 8 21 16
40 7 19 12 38 11 43 -1 4 2 7 7 7 7 0 13 14 26 60 0 3 12 30 25 60 14 30 24
58 22 63 -1 4 3 7 8 7 6 0 10 6 10 13 0 7 18 54 39 105 21 50 36 93 33 96 -3
3 -1 6 5 6 6 0 14 12 19 28 10 35 8 31 28 77 39 88 78 181 80 190 2 6 8 24 16
40 7 17 16 39 21 50 4 11 14 36 23 55 8 19 31 76 52 125 20 50 44 108 54 130
20 48 33 78 34 85 2 9 67 165 88 210 11 25 26 61 33 80 7 19 25 60 38 91 14
31 23 60 20 63 -11 11 11 6 37 -8z m-3145 -1296 c6 -1 21 -7 35 -13 14 -6 27
-11 30 -12 3 -1 22 -9 42 -18 21 -10 40 -17 43 -17 3 0 24 -9 48 -19 59 -27
81 -34 90 -33 4 1 7 -3 7 -8 0 -5 7 -10 15 -10 9 0 35 -10 58 -21 23 -12 42
-21 42 -20 0 3 40 -13 108 -43 31 -14 59 -26 62 -26 3 0 19 -7 35 -15 16 -8
31 -15 32 -14 2 0 17 -5 33 -12 17 -7 32 -13 35 -14 7 -2 50 -20 129 -54 38
-16 72 -27 75 -24 3 4 6 2 6 -4 0 -6 12 -14 26 -17 14 -4 45 -15 68 -25 59
-27 80 -34 89 -33 4 1 7 -2 7 -6 0 -9 78 -37 93 -34 4 1 7 -3 7 -8 0 -6 4 -10
10 -10 5 0 92 -34 192 -76 101 -42 188 -77 193 -78 6 -1 20 -8 33 -15 13 -7
50 -23 84 -35 l60 -23 -85 -36 c-47 -21 -90 -37 -96 -37 -6 0 -11 -5 -11 -10
0 -6 -3 -9 -7 -8 -10 3 -194 -71 -210 -84 -7 -6 -13 -7 -13 -3 0 4 -11 0 -25
-9 -14 -9 -25 -14 -25 -10 0 3 -11 -1 -25 -10 -13 -9 -28 -16 -33 -16 -5 0
-36 -12 -68 -27 -33 -14 -63 -27 -69 -29 -13 -3 -201 -81 -245 -102 -19 -9
-40 -17 -46 -18 -5 -1 -35 -13 -65 -26 -30 -14 -76 -33 -104 -43 -27 -11 -53
-23 -56 -28 -3 -5 -10 -8 -15 -8 -5 1 -22 -4 -39 -10 -16 -7 -33 -11 -37 -10
-5 0 -8 -3 -8 -7 0 -5 -6 -9 -12 -9 -13 -1 -446 -181 -501 -208 -24 -12 -28
-12 -36 4 -35 64 -101 350 -119 511 -14 129 -5 551 13 580 2 3 6 26 10 50 3
25 8 52 10 60 2 8 7 29 10 46 5 35 48 185 64 227 9 22 14 26 28 18 10 -5 23
-10 28 -11z m4284 -77 c109 -382 123 -724 46 -1131 -9 -46 -64 -242 -73 -258
-5 -9 -23 -6 -72 15 -93 39 -104 44 -110 46 -3 1 -16 6 -30 12 -14 6 -92 39
-175 73 -82 34 -163 68 -180 75 -56 24 -240 100 -245 100 -3 1 -23 9 -45 19
-22 9 -78 33 -125 53 -47 19 -96 40 -110 46 -14 6 -27 11 -30 12 -3 1 -16 6
-30 13 -63 28 -126 54 -140 57 -8 2 -55 21 -105 43 -91 39 -126 53 -135 54 -3
0 -14 5 -25 11 -11 6 -67 30 -124 53 l-105 43 67 30 c37 17 69 31 71 31 2 0
25 10 52 22 27 12 54 23 59 24 6 1 28 10 50 20 22 10 42 18 45 19 3 1 19 8 35
15 17 7 32 14 35 14 5 1 191 78 245 101 67 29 84 36 170 71 50 20 95 39 100
42 6 4 15 7 20 8 9 2 296 121 360 149 17 7 93 39 170 70 77 32 145 60 150 63
6 4 15 7 20 8 6 1 28 10 50 20 22 10 43 18 47 18 3 1 10 4 14 9 19 19 32 1 53
-70z m-2463 -1056 c-30 -70 -52 -127 -49 -127 3 0 1 -6 -5 -12 -5 -7 -24 -49
-42 -93 -44 -111 -47 -119 -49 -127 -1 -5 -10 -24 -21 -43 -11 -20 -20 -40
-20 -45 0 -5 -11 -33 -24 -62 -14 -30 -34 -78 -46 -108 -12 -30 -27 -66 -33
-80 -6 -14 -11 -27 -12 -30 -1 -3 -6 -16 -12 -30 -6 -14 -43 -104 -83 -200
-40 -96 -77 -186 -83 -200 -6 -14 -11 -27 -12 -30 -2 -5 -9 -22 -50 -120 -45
-107 -48 -115 -49 -120 -1 -3 -16 -39 -33 -80 -17 -41 -39 -92 -47 -112 l-16
-38 -48 23 c-321 151 -659 446 -871 761 -53 79 -151 249 -151 262 0 5 15 15
33 22 37 16 74 31 102 43 64 28 432 181 440 183 6 2 21 8 35 14 108 46 367
154 375 156 6 2 21 8 35 13 39 16 509 211 565 235 28 11 88 37 135 57 49 21
86 33 88 26 1 -5 -22 -68 -52 -138z m619 122 c2 0 26 -9 51 -21 26 -11 52 -21
58 -22 6 -1 21 -7 33 -14 12 -7 28 -12 37 -12 8 0 16 -5 18 -10 2 -6 13 -12
26 -13 12 0 22 -5 22 -9 0 -4 7 -8 15 -8 8 0 23 -4 33 -10 9 -5 57 -26 105
-45 48 -20 100 -41 115 -47 15 -6 29 -12 32 -13 3 -1 24 -9 47 -19 23 -10 45
-17 49 -16 4 1 10 -2 13 -7 5 -7 138 -63 161 -69 3 0 28 -11 55 -23 28 -13
109 -47 180 -76 72 -29 156 -65 187 -78 31 -14 59 -23 62 -19 3 3 6 -1 6 -8 0
-7 3 -11 6 -7 4 3 23 -2 44 -13 21 -11 40 -16 44 -13 3 4 6 1 6 -5 0 -7 3 -11
8 -10 4 1 17 -3 30 -10 12 -7 22 -10 22 -7 0 3 11 -2 24 -11 14 -8 27 -15 30
-15 3 0 27 -9 53 -20 27 -12 53 -22 58 -24 6 -1 27 -10 48 -19 l38 -17 -42
-77 c-57 -105 -176 -284 -244 -368 -178 -218 -432 -428 -686 -567 -75 -41 -75
-41 -105 38 -10 28 -20 52 -23 55 -4 3 -7 10 -8 15 -2 10 -142 351 -168 410
-7 17 -30 71 -49 120 -20 50 -41 98 -46 107 -6 10 -10 25 -10 33 0 8 -5 15
-12 15 -6 0 -9 3 -6 6 3 3 -12 47 -34 97 -22 51 -41 97 -42 102 -2 6 -8 21
-14 35 -5 14 -31 75 -57 135 -26 61 -49 120 -52 133 -3 12 -9 22 -14 22 -5 0
-8 3 -7 8 3 8 -33 104 -41 112 -4 3 -8 14 -9 25 -2 11 -8 23 -14 26 -5 3 -8 8
-7 10 2 2 -5 24 -16 49 -10 25 -19 47 -20 50 -5 14 -19 50 -36 87 -26 58 -24
66 11 48 16 -8 32 -16 35 -16z m-270 -172 c20 -48 41 -100 47 -115 6 -15 12
-29 13 -32 1 -3 9 -23 19 -45 10 -22 24 -56 31 -75 7 -19 21 -53 31 -75 10
-22 18 -42 19 -45 1 -3 7 -16 12 -30 6 -14 28 -65 48 -115 20 -49 58 -142 85
-205 26 -63 62 -151 80 -195 36 -90 48 -119 79 -187 11 -26 21 -50 21 -53 0
-3 10 -27 21 -53 77 -172 193 -462 187 -467 -19 -15 -301 -89 -383 -100 -27
-4 -61 -9 -75 -11 -66 -11 -187 -18 -305 -18 -166 0 -243 6 -436 39 -39 7
-209 52 -250 67 l-36 13 66 160 c37 88 71 169 76 180 4 11 9 22 10 25 1 3 6
16 12 30 24 54 36 85 39 95 2 9 29 72 54 130 5 11 21 49 36 85 14 36 31 76 37
90 6 14 11 27 12 30 1 3 6 16 12 30 6 14 34 81 62 150 29 69 59 141 67 160 54
124 89 215 86 222 -1 5 2 8 8 8 6 0 10 8 10 18 0 10 7 27 15 39 8 12 16 29 18
40 2 10 10 34 19 53 34 71 100 235 101 248 1 23 15 -2 52 -91z"/>
</g>
</svg>
